<svg id="Layer_1" data-name="Layer 1" xmlns="http://www.w3.org/2000/svg" viewBox="0 0 22.51 27.65"><defs><style>.cls-1{fill:#fff;}</style></defs><title>App_Store</title><path class="cls-1" d="M19.54,15.87a6.28,6.28,0,0,1,3-5.27,6.47,6.47,0,0,0-5.05-2.74c-2.15-.22-4.2,1.27-5.29,1.27S9.4,7.89,7.61,7.93a6.76,6.76,0,0,0-5.72,3.46c-2.43,4.23-.62,10.5,1.76,13.93C4.81,27,6.19,28.89,8,28.82s2.41-1.13,4.53-1.13,2.71,1.13,4.56,1.1,3.08-1.71,4.23-3.4a15,15,0,0,0,1.92-3.93A6.11,6.11,0,0,1,19.54,15.87ZM16.06,5.59A6.14,6.14,0,0,0,17.5,1.18a6.14,6.14,0,0,0-4.07,2.09A5.78,5.78,0,0,0,12,7.55,5.13,5.13,0,0,0,16.06,5.59Z" transform="translate(-0.74 -1.18)"/></svg>