<svg id="Layer_1" data-name="Layer 1" xmlns="http://www.w3.org/2000/svg" viewBox="0 0 23.99 28.71"><defs><style>.cls-1{fill:#fff;}</style></defs><title>Google-play</title><path class="cls-1" d="M2.21,9.83c-1,0-1.76.53-1.76,1.18v7.21c0,.66.79,1.19,1.76,1.19S4,18.88,4,18.22V11C4,10.36,3.19,9.83,2.21,9.83ZM5.33,21.17c0,1.86.74,2.77,2.37,2.94v3.67c0,.64.78,1.16,1.75,1.16s1.75-.52,1.75-1.16V24.15h2.52v3.62c0,.64.78,1.17,1.75,1.17s1.75-.53,1.75-1.17V24.12c1.67-.18,2.4-1.18,2.4-2.91V11.08H5.35S5.33,19.11,5.33,21.17ZM22.69,9.91c-1,0-1.75.52-1.75,1.16v7.11c0,.64.78,1.16,1.75,1.16s1.75-.52,1.75-1.16V11.07C24.44,10.42,23.66,9.91,22.69,9.91ZM16.05,4.77s.05,0,.07-.06l2.26-3.58a.58.58,0,0,0-.24-.82.7.7,0,0,0-.9.22L15,4.11a.76.76,0,0,0-.06.16,7.27,7.27,0,0,0-2.44-.42A7.39,7.39,0,0,0,10,4.27.46.46,0,0,0,10,4.11L7.69.53A.7.7,0,0,0,6.8.31a.56.56,0,0,0-.24.82L8.82,4.71s0,0,.07.06a7,7,0,0,0-3.61,5h14.4A7,7,0,0,0,16.05,4.77ZM9.54,7.84a1,1,0,0,1,0-1.91,1,1,0,1,1,0,1.91Zm5.81,0a1,1,0,0,1,0-1.91,1,1,0,1,1,0,1.91Z" transform="translate(-0.45 -0.23)"/></svg>