<?xml version="1.0" encoding="utf-8"?>
<!-- Generator: Adobe Illustrator 15.1.0, SVG Export Plug-In . SVG Version: 6.00 Build 0)  -->
<!DOCTYPE svg PUBLIC "-//W3C//DTD SVG 1.1//EN" "http://www.w3.org/Graphics/SVG/1.1/DTD/svg11.dtd">
<svg version="1.1" id="Ebene_1" xmlns="http://www.w3.org/2000/svg" xmlns:xlink="http://www.w3.org/1999/xlink" x="0px" y="0px"
	 width="98px" height="88px" viewBox="0 0 98 88" enable-background="new 0 0 98 88" xml:space="preserve">
<g>
	<defs>
		<rect id="SVGID_1_" width="98" height="88"/>
	</defs>
	<clipPath id="SVGID_2_">
		<use xlink:href="#SVGID_1_"  overflow="visible"/>
	</clipPath>
	<g clip-path="url(#SVGID_2_)">
		<g>
			<polygon fill="none" stroke="#FFFFFF" stroke-width="3.9857" stroke-miterlimit="10" points="86.851,129.947 80.143,62.06 
				96,52.486 96,2 78.598,2 78.598,17.666 63.799,17.666 63.799,2 35.078,2 35.078,17.666 19.41,17.666 19.41,2 2,2 2,52.486 
				17.668,62.06 10.96,129.947 			"/>
			<polygon fill="#FFFFFF" points="86.851,129.947 80.143,62.06 96,52.486 96,2 78.598,2 78.598,17.666 63.799,17.666 63.799,2 
				35.078,2 35.078,17.666 19.41,17.666 19.41,2 2,2 2,52.486 17.668,62.06 10.96,129.947 			"/>
			<polygon fill="#C4C6C6" points="40.981,129.745 40.981,83.095 92.801,52.729 92.053,50.194 27.237,50.194 27.237,21.995 
				27.237,17.666 19.41,17.666 19.41,2 2,2 2,52.486 17.668,62.06 10.96,129.947 28.328,129.745 			"/>
		</g>
	</g>
</g>
</svg>
