<svg xmlns="http://www.w3.org/2000/svg" xmlns:xlink="http://www.w3.org/1999/xlink" preserveAspectRatio="xMidYMid" width="17" height="17" viewBox="0 0 17 17">
  <path d="M0.412,14.550 C0.412,14.550 4.100,10.863 4.100,10.863 C4.119,10.843 4.142,10.829 4.163,10.811 C3.437,9.710 3.014,8.393 3.014,6.976 C3.014,3.122 6.138,-0.003 9.992,-0.003 C13.847,-0.003 16.971,3.122 16.971,6.976 C16.971,10.830 13.847,13.955 9.992,13.955 C8.576,13.955 7.258,13.531 6.158,12.806 C6.139,12.826 6.126,12.849 6.106,12.869 C6.106,12.869 2.418,16.556 2.418,16.556 C1.864,17.110 0.966,17.110 0.412,16.556 C-0.142,16.002 -0.142,15.104 0.412,14.550 ZM9.992,11.535 C12.511,11.535 14.552,9.494 14.552,6.976 C14.552,4.458 12.510,2.417 9.992,2.417 C7.474,2.417 5.433,4.458 5.433,6.976 C5.433,9.494 7.474,11.535 9.992,11.535 Z" id="path-1" fill="#fff" fill-rule="evenodd"/>
</svg>
