<svg id="Layer_1" data-name="Layer 1" xmlns="http://www.w3.org/2000/svg" viewBox="0 0 37 22"><defs><style>.cls-1{fill:#fff;}</style></defs><title>steam</title><path class="cls-1" d="M481.9,360a6.66,6.66,0,0,0-6.6,6.6,5.66,5.66,0,0,0,.3,1.8l-2.6,4.2a3.75,3.75,0,0,0-1.1-.1,4.43,4.43,0,0,0-3,1.1l-7.9-3.5v-.3a4.8,4.8,0,0,0-4.8-4.8,4.87,4.87,0,0,0-4.8,4.8,4.74,4.74,0,0,0,4.8,4.8,4.46,4.46,0,0,0,2.6-.8l8.2,3.6a4.8,4.8,0,0,0,9.6-.2,1.27,1.27,0,0,0-.1-.6l4.4-3.5c.3,0,.6.1.9.1a6.66,6.66,0,0,0,6.6-6.6A6.39,6.39,0,0,0,481.9,360ZM454,369.8a2.31,2.31,0,0,1,2.2-2.3,2.24,2.24,0,0,1,2.2,2.3,2.31,2.31,0,0,1-2.2,2.3A2.38,2.38,0,0,1,454,369.8Zm17.9,9.7a2.3,2.3,0,1,1,2.3-2.3A2.26,2.26,0,0,1,471.9,379.5Zm10-9.1a3.8,3.8,0,1,1,3.8-3.8A3.8,3.8,0,0,1,481.9,370.4Z" transform="translate(-451.4 -360)"/></svg>