<svg xmlns="http://www.w3.org/2000/svg" xmlns:xlink="http://www.w3.org/1999/xlink" preserveAspectRatio="xMidYMid" width="12" height="27" viewBox="0 0 12 27">
  <path d="M2.593,5.420 C2.593,6.126 2.593,9.275 2.593,9.275 C2.593,9.275 -0.000,9.275 -0.000,9.275 C-0.000,9.275 -0.000,13.989 -0.000,13.989 C-0.000,13.989 2.593,13.989 2.593,13.989 C2.593,13.989 2.593,26.997 2.593,26.997 C2.593,26.997 7.922,26.997 7.922,26.997 C7.922,26.997 7.922,13.989 7.922,13.989 C7.922,13.989 11.497,13.989 11.497,13.989 C11.497,13.989 11.832,11.729 11.994,9.258 C11.529,9.258 7.942,9.258 7.942,9.258 C7.942,9.258 7.942,6.515 7.942,6.035 C7.942,5.553 8.523,4.905 9.097,4.905 C9.670,4.905 10.879,4.905 12.000,4.905 C12.000,4.263 12.000,2.045 12.000,-0.002 C10.504,-0.002 8.803,-0.002 8.053,-0.002 C2.462,-0.003 2.593,4.716 2.593,5.420 Z" id="path-1" fill="#fff" fill-rule="evenodd"/>
</svg>
